HIERARCHY
ROOT Hips
{
	OFFSET -0.001795 -0.223333 0.028219
	CHANNELS 6 Xposition Yposition Zposition Zrotation Yrotation Xrotation 
	JOINT LeftUpLeg
	{
		OFFSET 0.069520 -0.091406 -0.006815
		CHANNELS 3 Zrotation Yrotation Xrotation
		JOINT LeftLeg
		{
			OFFSET 0.034277 -0.375199 -0.004496
			CHANNELS 3 Zrotation Yrotation Xrotation
			JOINT LeftFoot
			{
				OFFSET -0.013596 -0.397961 -0.043693
				CHANNELS 3 Zrotation Yrotation Xrotation
				JOINT LeftToe
				{
					OFFSET 0.026358 -0.055791 0.119288
					CHANNELS 3 Zrotation Yrotation Xrotation
					End Site
					{
						OFFSET 0.000000 0.000000 0.000000
					}
				}
			}
		}
	}
	JOINT RightUpLeg
	{
		OFFSET -0.067670 -0.090522 -0.004320
		CHANNELS 3 Zrotation Yrotation Xrotation
		JOINT RightLeg
		{
			OFFSET -0.038290 -0.382569 -0.008850
			CHANNELS 3 Zrotation Yrotation Xrotation
			JOINT RightFoot
			{
				OFFSET 0.015774 -0.398415 -0.042312
				CHANNELS 3 Zrotation Yrotation Xrotation
				JOINT RightToe
				{
					OFFSET -0.025372 -0.048144 0.123348
					CHANNELS 3 Zrotation Yrotation Xrotation
					End Site
					{
						OFFSET 0.000000 0.000000 0.000000
					}
				}
			}
		}
	}
	JOINT Spine
	{
		OFFSET -0.002533 0.108963 -0.026696
		CHANNELS 3 Zrotation Yrotation Xrotation
		JOINT Spine1
		{
			OFFSET 0.005487 0.135180 0.001092
			CHANNELS 3 Zrotation Yrotation Xrotation
			JOINT Spine2
			{
				OFFSET 0.001457 0.052922 0.025425
				CHANNELS 3 Zrotation Yrotation Xrotation
				JOINT Neck
				{
					OFFSET -0.002778 0.213870 -0.042857
					CHANNELS 3 Zrotation Yrotation Xrotation
					JOINT Head
					{
						OFFSET 0.005152 0.064970 0.051349
						CHANNELS 3 Zrotation Yrotation Xrotation
						End Site
						{
							OFFSET 0.000000 0.000000 0.000000
						}
					}
				}
				JOINT LeftShoulder
				{
					OFFSET 0.078845 0.121749 -0.034090
					CHANNELS 3 Zrotation Yrotation Xrotation
					JOINT LeftArm
					{
						OFFSET 0.090977 0.030469 -0.008868
						CHANNELS 3 Zrotation Yrotation Xrotation
						JOINT LeftForeArm
						{
							OFFSET 0.259612 -0.012772 -0.027456
							CHANNELS 3 Zrotation Yrotation Xrotation
							JOINT LeftHand
							{
								OFFSET 0.249234 0.008986 -0.001171
								CHANNELS 3 Zrotation Yrotation Xrotation
								End Site
								{
									OFFSET 0.000000 0.000000 0.000000
								}
							}
						}
					}
				}
				JOINT RightShoulder
				{
					OFFSET -0.081759 0.118833 -0.038615
					CHANNELS 3 Zrotation Yrotation Xrotation
					JOINT RightArm
					{
						OFFSET -0.096012 0.032551 -0.009143
						CHANNELS 3 Zrotation Yrotation Xrotation
						JOINT RightForeArm
						{
							OFFSET -0.253742 -0.013329 -0.021401
							CHANNELS 3 Zrotation Yrotation Xrotation
							JOINT RightHand
							{
								OFFSET -0.255298 0.007772 -0.005559
								CHANNELS 3 Zrotation Yrotation Xrotation
								End Site
								{
									OFFSET 0.000000 0.000000 0.000000
								}
							}
						}
					}
				}
			}
		}
	}
}
MOTION
Frames: 10
Frame Time: 0.050000
0.000000 0.941882 0.000000 -0.466614 -0.580038 -0.969334 9.335405 -0.023951 5.124789 -4.646482 0.482700 -5.081571 4.979587 13.144259 15.669836 0.000000 0.000000 0.000000 -6.096099 0.060956 1.605085 4.990856 -0.523788 -0.081997 -4.269333 -13.094492 12.146076 0.000000 0.000000 0.000000 0.255648 -0.357835 8.346056 5.201343 -0.894106 -21.019322 -0.555371 0.242222 26.667662 -0.439098 1.890027 -27.615920 0.000000 0.000000 0.000000 -30.875163 -4.862070 1.341352 -46.523734 -11.023656 -3.647645 -2.832012 -23.003181 1.692579 0.000000 0.000000 0.000000 20.791570 8.236880 3.438852 50.164282 6.818955 -4.421087 -6.505860 22.093258 -0.190334 0.000000 0.000000 0.000000 
-0.001499 0.941326 0.001526 -0.805925 -0.976612 -0.484660 9.737179 -0.038433 5.823631 -4.608141 0.473387 -6.902919 5.127179 13.371791 16.075356 0.000000 0.000000 0.000000 -5.885584 0.106191 0.758129 5.410399 -0.566196 0.559113 -4.160912 -12.884640 11.863186 0.000000 0.000000 0.000000 0.760774 -0.392852 8.226219 5.246130 -0.894547 -21.252244 -0.809523 0.545193 26.043030 -0.368069 1.899330 -28.194790 0.000000 0.000000 0.000000 -31.194269 -4.579989 1.062424 -46.656218 -10.703335 -3.690888 -3.734571 -22.515487 1.818293 0.000000 0.000000 0.000000 20.790184 8.359041 3.514115 50.874659 5.737256 -4.845680 -7.660722 23.800521 -0.407928 0.000000 0.000000 0.000000 
-0.002817 0.940633 0.002879 -0.726224 -0.524288 -0.337247 9.739665 -0.061163 5.302185 -4.536362 0.466979 -6.286641 4.988713 13.163600 15.709866 0.000000 0.000000 0.000000 -5.946144 0.108745 0.645012 5.584122 -0.593207 0.764398 -4.426316 -13.285938 11.589904 0.000000 0.000000 0.000000 0.958683 -0.413297 8.279108 5.302093 -0.849312 -21.912616 -1.027288 -0.180822 26.179510 -0.407897 1.902404 -29.571082 0.000000 0.000000 0.000000 -30.967422 -4.346262 1.109616 -46.752319 -11.467946 -3.483676 -3.605542 -21.114196 1.681358 0.000000 0.000000 0.000000 20.559496 8.223279 3.297986 50.968079 5.510749 -4.907025 -7.241488 23.073897 -0.342624 0.000000 0.000000 0.000000 
-0.004344 0.940187 0.004257 -0.697436 -0.890369 -0.448548 9.823709 -0.046732 5.841268 -4.618204 0.473964 -6.710205 5.123771 13.344813 15.843468 0.000000 0.000000 0.000000 -5.952921 0.109902 0.708947 5.661739 -0.598320 0.944752 -4.296531 -13.023325 11.232502 0.000000 0.000000 0.000000 0.608468 -0.380107 8.208285 5.936128 -1.045819 -21.651389 -1.307532 -0.262901 25.671247 -0.504758 1.883903 -28.974369 0.000000 0.000000 0.000000 -31.495136 -4.139385 1.037768 -46.501143 -11.162890 -3.557146 -4.098622 -20.607991 1.720124 0.000000 0.000000 0.000000 20.588372 8.882655 3.561519 51.216374 5.333404 -4.925345 -8.020770 24.129148 -0.520783 0.000000 0.000000 0.000000 
-0.006092 0.940517 0.005503 -0.659482 -0.573329 -0.619426 9.741533 -0.047980 5.992272 -4.283642 0.452813 -6.633643 4.934912 13.113709 15.926614 0.000000 0.000000 0.000000 -5.823674 0.084130 1.012497 5.604963 -0.597328 0.973339 -4.428137 -13.242966 11.248999 0.000000 0.000000 0.000000 0.552916 -0.393302 8.581708 6.478635 -1.200384 -21.469529 -1.631054 -0.519225 24.898727 -0.572005 1.904323 -28.647957 0.000000 0.000000 0.000000 -31.242282 -4.146727 1.022227 -46.946732 -11.091682 -3.520308 -4.610603 -20.320077 1.778174 0.000000 0.000000 0.000000 21.044304 8.409230 3.254774 51.025570 6.108058 -4.505598 -8.417047 24.279048 -0.604909 0.000000 0.000000 0.000000 
-0.008152 0.940500 0.006500 -0.513106 -0.575369 -0.488371 9.655293 -0.044113 6.096025 -4.182198 0.446728 -6.957235 4.894230 13.085274 16.169844 0.000000 0.000000 0.000000 -5.845376 0.095621 0.829508 5.603651 -0.598585 1.163877 -4.472391 -13.295165 11.053875 0.000000 0.000000 0.000000 0.318168 -0.368008 8.444572 6.458522 -1.191733 -21.492687 -1.413761 -0.826311 24.713717 -0.636802 1.869304 -28.239297 0.000000 0.000000 0.000000 -31.135410 -4.164004 1.161274 -47.022833 -11.105096 -3.539399 -4.890833 -19.829469 1.780277 0.000000 0.000000 0.000000 21.107820 8.705323 3.321004 50.797742 6.324168 -4.363430 -8.953288 25.257511 -0.757928 0.000000 0.000000 0.000000 
-0.010800 0.941005 0.007034 -0.430904 -0.457717 -0.505588 9.769853 -0.055415 5.981370 -4.213951 0.447627 -6.715641 4.781056 12.966747 16.413262 0.000000 0.000000 0.000000 -5.651990 0.088731 0.808918 5.431384 -0.582014 1.328563 -4.541445 -13.412557 11.034394 0.000000 0.000000 0.000000 0.146236 -0.363056 8.652999 6.702246 -1.262090 -21.409660 -1.427244 -1.001216 24.420942 -0.492811 1.766217 -28.073763 0.000000 0.000000 0.000000 -31.293694 -4.276849 1.260020 -46.634892 -10.832968 -3.611504 -5.432005 -19.993773 1.884898 0.000000 0.000000 0.000000 21.711749 8.973392 3.433861 50.132520 6.843007 -4.072115 -9.203876 25.936022 -0.846844 0.000000 0.000000 0.000000 
-0.014253 0.941396 0.007318 -0.369809 -0.740879 -0.452367 9.759564 -0.046515 5.888254 -3.963154 0.437586 -6.513052 4.882093 13.128071 16.761957 0.000000 0.000000 0.000000 -5.266309 0.089123 0.666630 4.997903 -0.528035 1.444280 -4.462097 -13.261837 10.859727 0.000000 0.000000 0.000000 0.007859 -0.353739 8.750761 6.891040 -1.313264 -21.441566 -1.292821 -0.815125 24.363489 -0.157186 1.546580 -27.312684 0.000000 0.000000 0.000000 -31.067792 -4.431634 1.377809 -46.512342 -10.674079 -3.665183 -5.767028 -20.066317 1.947844 0.000000 0.000000 0.000000 21.837598 9.103934 3.506214 50.229720 7.539036 -3.794119 -9.256015 26.048048 -0.860558 0.000000 0.000000 0.000000 
-0.018475 0.941588 0.007334 -0.292257 -0.563894 -0.446205 9.826332 -0.056858 5.811717 -3.709012 0.422130 -6.468620 4.739422 12.983113 17.055834 0.000000 0.000000 0.000000 -4.872219 0.069382 0.773478 4.679732 -0.492665 1.299628 -4.577599 -13.439802 10.714259 0.000000 0.000000 0.000000 -0.111506 -0.352405 8.952866 7.079126 -1.367461 -21.368907 -1.124938 -0.883285 24.219187 -0.271903 1.587524 -26.725281 0.000000 0.000000 0.000000 -31.028248 -4.544726 1.430538 -46.222728 -10.735068 -3.609929 -6.361567 -20.354846 2.077348 0.000000 0.000000 0.000000 21.931313 9.588542 3.792501 49.954791 7.960319 -3.597788 -9.154361 26.394934 -0.857560 0.000000 0.000000 0.000000 
-0.023362 0.941812 0.007185 -0.262052 -0.268735 -0.426943 10.038099 -0.081426 5.575938 -3.521490 0.408257 -6.239937 4.540885 12.769940 17.327046 0.000000 0.000000 0.000000 -4.520025 0.059336 0.711400 4.625636 -0.490218 1.434124 -4.744193 -13.711679 10.590404 0.000000 0.000000 0.000000 -0.079462 -0.366963 9.208565 7.133676 -1.378558 -21.353217 -0.985082 -0.778019 24.031044 -0.494942 1.755073 -26.629411 0.000000 0.000000 0.000000 -30.981886 -4.740153 1.437792 -46.121479 -10.468076 -3.653187 -6.397168 -20.792591 2.125386 0.000000 0.000000 0.000000 21.967844 9.864612 4.036338 50.036132 8.281930 -3.473631 -8.873596 26.256888 -0.783755 0.000000 0.000000 0.000000 
